HIERARCHY
ROOT Hips
{
	OFFSET 0.00000 0.00000 0.00000
	CHANNELS 6 Xposition Yposition Zposition Zrotation Yrotation Xrotation 
	JOINT LHipJoint
	{
		OFFSET 0 0 0
		CHANNELS 3 Zrotation Yrotation Xrotation
		JOINT LeftHip
		{
			OFFSET 1.74857 -1.85566 0.69197
			CHANNELS 3 Zrotation Yrotation Xrotation
			JOINT LeftKnee
			{
				OFFSET 2.40003 -6.59403 0.00000
				CHANNELS 3 Zrotation Yrotation Xrotation
				JOINT LeftAnkle
				{
					OFFSET 2.82169 -7.75254 0.00000
					CHANNELS 3 Zrotation Yrotation Xrotation
					JOINT LeftToe
					{
						OFFSET 0.16466 -0.45240 2.26890
						CHANNELS 3 Zrotation Yrotation Xrotation
						End Site
						{
							OFFSET 0.00000 -0.00000 1.16486
						}
					}
				}
			}
		}
	}
	JOINT RHipJoint
	{
		OFFSET 0 0 0
		CHANNELS 3 Zrotation Yrotation Xrotation
		JOINT RightHip
		{
			OFFSET -1.64169 -1.85566 0.69197
			CHANNELS 3 Zrotation Yrotation Xrotation
			JOINT RightKnee
			{
				OFFSET -2.41814 -6.64379 0.00000
				CHANNELS 3 Zrotation Yrotation Xrotation
				JOINT RightAnkle
				{
					OFFSET -2.80588 -7.70911 0.00000
					CHANNELS 3 Zrotation Yrotation Xrotation
					JOINT RightToe
					{
						OFFSET -0.19098 -0.52472 2.25401
						CHANNELS 3 Zrotation Yrotation Xrotation
						End Site
						{
							OFFSET -0.00000 -0.00000 1.16333
						}
					}
				}
			}
		}
	}
	JOINT lowerback
	{
		OFFSET 0 0 0
		CHANNELS 3 Zrotation Yrotation Xrotation
		JOINT Chest
		{
			OFFSET -0.02828 2.14690 -0.11061
			CHANNELS 3 Zrotation Yrotation Xrotation
			JOINT Chest2
			{
				OFFSET -0.00167 2.15299 0.00759
				CHANNELS 3 Zrotation Yrotation Xrotation
				JOINT lowerneck
				{
					OFFSET 0 0 0
					CHANNELS 3 Zrotation Yrotation Xrotation
					JOINT Neck
					{
						OFFSET -0.09296 1.90118 0.07197
						CHANNELS 3 Zrotation Yrotation Xrotation
						JOINT Head
						{
							OFFSET 0.08490 1.89526 -0.24604
							CHANNELS 3 Zrotation Yrotation Xrotation
							End Site
							{
								OFFSET 0.03186 1.92109 -0.09483
							}
						}
					}
				}
				JOINT LeftCollar
				{
					OFFSET 0 0 0
					CHANNELS 3 Zrotation Yrotation Xrotation
					JOINT LeftShoulder
					{
						OFFSET 3.21569 1.44644 -0.03720
CHANNELS 3 Zrotation Xrotation Yrotation
						JOINT LeftElbow
						{
OFFSET 0 -5.476510 -0.000000
CHANNELS 3 Zrotation Xrotation Yrotation
							JOINT LeftWrist
							{
OFFSET 0 -3.090580 -0.000000
CHANNELS 3 Zrotation Xrotation Yrotation
								JOINT lhand
								{
									OFFSET 0 0 0
CHANNELS 3 Zrotation Xrotation Yrotation
									JOINT LFingers
									{
OFFSET 0 -0.771610 -0.000000
CHANNELS 3 Zrotation Xrotation Yrotation
										End Site
										{
OFFSET 0 -0.622090 -0.000000
										}
									}
								}
								JOINT LThumb
								{
OFFSET 0 0.000000 0.000000
CHANNELS 3 Zrotation Xrotation Yrotation
									End Site
									{
OFFSET 0 -0.631590 0.631590
									}
								}
							}
						}
					}
				}
				JOINT RightCollar
				{
					OFFSET 0 0 0
					CHANNELS 3 Zrotation Yrotation Xrotation
					JOINT RightShoulder
					{
						OFFSET -3.38693 1.28904 -0.07093
CHANNELS 3 Zrotation Xrotation Yrotation
						JOINT RightElbow
						{
OFFSET 0 -5.141820 -0.000000
CHANNELS 3 Zrotation Xrotation Yrotation
							JOINT RightWrist
							{
OFFSET 0 -3.355650 -0.000000
CHANNELS 3 Zrotation Xrotation Yrotation
								JOINT rhand
								{
									OFFSET 0 0 0
CHANNELS 3 Zrotation Xrotation Yrotation
									JOINT RFingers
									{
OFFSET 0 -0.801040 -0.000000
CHANNELS 3 Zrotation Xrotation Yrotation
										End Site
										{
OFFSET 0 -0.645820 -0.000000
										}
									}
								}
								JOINT RThumb
								{
OFFSET 0 0.000000 0.000000
CHANNELS 3 Zrotation Xrotation Yrotation
									End Site
									{
OFFSET 0 -0.655680 0.655680
									}
								}
							}
						}
					}
				}
			}
		}
	}
}
MOTION
Frames: 4
Frame Time: 0.008333333333333333
0.747903 17.216587 -2.710457 1.624571 -8.844510 8.506714 0.000000 0.000000 0.000000 -19.857549 -8.442683 -33.399305 6.124128 14.547151 45.477159 1.446919 3.468989 -24.201534 0.616511 -5.023991 -13.977304 0.000000 0.000000 0.000000 11.794365 14.819244 -34.507186 -6.057325 -14.483158 45.210459 -1.003629 -2.188454 -19.832387 -0.234534 3.116814 -8.604158 -2.895673 3.532818 20.016691 0.699433 4.023558 11.882463 1.634674 1.808346 1.445012 -7.045764 -9.096310 3.409737 11.300744 -12.288358 -1.077168 4.471774 -6.250400 0.280102 0.000000 0.000000 0.000000 73.181043 -51.670973 -15.843273 48.951667 -52.561667 25.339932 -4.795287 -14.430306 -26.209646 0.000000 0.000000 0.000000 -7.125000 0.000000 0.000000 -35.184156 52.548932 7.267485 0.000000 0.000000 0.000000 -45.333772 -6.149930 73.787292 -83.987169 -59.862297 -54.795166 -14.310728 -47.021131 -11.753656 0.000000 0.000000 0.000000 7.125000 0.000000 0.000000 8.981648 17.947560 5.849454
0.872255 16.894118 -2.741031 2.003730 -7.315656 6.692634 0.000000 0.000000 0.000000 -20.566334 -8.046977 -34.814461 7.433376 15.685994 50.494512 1.699058 1.274258 -25.130715 0.730725 -5.460506 -15.227091 0.000000 0.000000 0.000000 10.781601 14.015683 -36.144668 -7.661540 -15.864147 51.333524 -1.290427 -1.849791 -22.200148 -0.285048 3.432503 -9.485463 -3.826657 2.855598 20.307706 -0.251799 3.005916 12.749888 1.351011 1.266335 2.328829 -6.140276 -8.473461 2.434519 14.333099 -11.394789 -1.224986 5.210188 -5.817514 0.443076 0.000000 0.000000 0.000000 38.285456 -64.254360 -24.220117 44.899646 -50.719184 22.161086 0.555848 -15.473038 -27.505461 0.000000 0.000000 0.000000 -7.125000 0.000000 0.000000 -31.213540 54.607134 7.945607 0.000000 0.000000 0.000000 -57.274634 -4.532310 74.679336 -87.155052 -59.969354 -57.536393 -8.754701 -52.057634 -10.839759 0.000000 0.000000 0.000000 7.125000 0.000000 0.000000 12.887564 19.155048 8.151254
0.970480 16.741390 -2.747307 2.568103 -5.864701 5.549464 0.000000 0.000000 0.000000 -21.538358 -8.453182 -34.766330 7.973831 16.099926 52.468314 1.785728 0.145474 -25.348500 0.726540 -5.446074 -15.185465 0.000000 0.000000 0.000000 9.744788 13.399315 -36.508577 -8.499044 -16.474285 54.340786 -1.415105 -2.203472 -23.362541 -0.363685 3.873916 -10.722274 -5.565141 1.573375 20.298453 -0.607368 1.100252 12.995510 2.296515 0.213720 2.717813 -6.630444 -7.106479 1.280791 15.351295 -9.660408 -0.201053 5.576945 -4.883311 0.826202 0.000000 0.000000 0.000000 0.006493 -58.725836 -42.250669 44.239205 -50.390233 21.651050 6.534483 -33.599632 -29.272459 0.000000 0.000000 0.000000 -7.125000 0.000000 0.000000 -26.788325 57.331297 8.500304 0.000000 0.000000 0.000000 -70.283053 -8.538130 74.607410 -85.566695 -59.925584 -56.161647 -1.308520 -57.235676 -7.890737 0.000000 0.000000 0.000000 7.125000 0.000000 0.000000 18.350356 22.180328 10.606495
1.012206 16.831692 -2.742872 2.530220 -4.902085 5.262019 0.000000 0.000000 0.000000 -21.794737 -9.060698 -33.289786 7.543527 15.772830 50.901011 1.702648 0.046973 -24.716694 0.624676 -5.057697 -14.073141 0.000000 0.000000 0.000000 9.861132 12.772321 -35.247288 -8.118691 -16.205671 52.988719 -1.321551 -2.820804 -22.894868 -0.360175 3.855207 -10.669741 -6.108641 0.530583 21.123082 -0.274938 -0.412431 11.926007 3.241351 -0.523233 1.263110 -7.209913 -5.975619 1.195338 14.445978 -8.283724 1.389504 5.412065 -4.142438 1.129220 0.000000 0.000000 0.000000 -9.899550 -48.831914 -52.592024 38.632721 -47.237653 17.428944 12.136884 -26.285265 -33.409276 0.000000 0.000000 0.000000 -7.125000 0.000000 0.000000 -24.607583 62.307692 10.701258 0.000000 0.000000 0.000000 -80.084242 -12.547814 70.558371 -80.642712 -59.664934 -51.905550 4.741810 -58.381133 -6.316886 0.000000 0.000000 0.000000 7.125000 0.000000 0.000000 22.766888 23.612749 12.742740
